<svg width="26" height="28" viewBox="0 0 26 28" fill="none" xmlns="http://www.w3.org/2000/svg">
<path d="M11.2011 0.477548C10.4025 0.762751 9.37577 1.2476 8.91944 1.58984C8.43459 1.90357 7.40786 2.27433 6.63781 2.38841C1.36155 3.15846 -1.60457 9.00513 0.905222 13.7395C1.33303 14.5096 1.64675 15.7359 1.76083 16.9338C1.93195 18.9587 2.38828 19.9569 3.38649 20.5844C3.70022 20.7555 4.41323 21.7822 4.92659 22.809C6.66633 26.2314 9.34725 27.9712 12.9123 27.9997C16.5059 28.0282 19.472 26.1173 20.9835 22.809C21.3828 21.9249 22.2099 20.7555 22.8374 20.2136C23.8071 19.358 23.9782 18.9873 24.1778 17.5042C24.3204 16.563 24.7482 14.8803 25.1475 13.7966C26.545 9.91778 25.889 6.49534 23.1796 3.78591C19.9853 0.563109 14.9372 -0.805868 11.2011 0.477548ZM18.3597 3.5007C20.3561 4.38484 22.5236 6.46682 23.0085 7.92136C23.3507 9.00513 23.4078 11.5149 23.0655 12.342C22.8944 12.7698 22.7233 12.5987 22.0388 11.2582C21.2973 9.8037 18.8445 7.09427 18.2741 7.09427C18.1315 7.09427 17.4185 7.60764 16.677 8.20656C14.6806 9.86074 14.3383 9.91778 13.0834 8.69141C11.9996 7.63616 10.3455 6.80907 9.31873 6.80907C7.0371 6.80907 4.58435 8.71993 3.78578 11.1156C3.52909 11.8857 3.18685 12.4561 3.07277 12.3705C2.61644 12.0853 2.44532 9.8037 2.75905 8.60585C3.38649 6.32422 5.38292 4.84116 7.83567 4.81264C8.66276 4.81264 9.26168 4.613 9.86061 4.09963C11.3437 2.84474 12.456 2.50249 14.6235 2.61657C16.021 2.70213 17.1618 2.95882 18.3597 3.5007ZM10.2884 9.71814C10.6307 9.88926 11.4292 10.5738 12.0567 11.2582C13.1975 12.4846 13.226 12.4846 14.4809 12.1994C15.1939 12.0283 16.3347 11.572 17.0192 11.1727L18.3026 10.4311L19.0442 11.3438C19.9283 12.3705 20.4702 13.9677 20.4702 15.4793C20.4702 16.2208 20.6698 16.7341 21.1261 17.162C21.9818 17.932 21.8392 18.3883 20.6413 18.7876C19.8142 19.0443 19.6431 19.301 19.2438 20.727C18.3882 23.8072 15.9354 25.7181 12.8838 25.6895C9.83209 25.661 7.55046 23.8072 6.63781 20.6414C6.26705 19.4436 6.03889 19.1013 5.26884 18.7591C4.29914 18.3313 3.84282 17.3616 4.61287 17.3616C5.26884 17.3616 5.55404 16.5915 5.7822 14.367C6.06741 11.7716 6.52373 10.6593 7.69307 9.9463C8.77684 9.29034 9.40429 9.2333 10.2884 9.71814Z" fill="black"/>
<path d="M10.0886 14.481C9.66083 14.9373 9.48971 14.9659 8.74818 14.6807C7.94961 14.3955 7.80701 14.4525 7.32216 15.0514C7.03696 15.4222 6.78027 15.8785 6.78027 16.1067C6.78027 16.7056 8.40593 18.3883 9.3471 18.7876C10.1742 19.1298 10.2883 19.1013 11.0583 18.3598C11.5147 17.9035 12.0565 17.1049 12.2277 16.563C12.5129 15.7359 12.4843 15.4792 11.9995 14.8233C11.2865 13.8821 10.7161 13.768 10.0886 14.481Z" fill="black"/>
<path d="M14.1104 14.4528C13.3689 15.2513 13.5115 16.5633 14.4812 17.8752C15.4508 19.2442 15.8787 19.3298 17.2191 18.4741C19.0444 17.3619 19.5578 15.9073 18.474 14.9376C18.0177 14.5098 17.7325 14.4528 17.105 14.6809C16.5061 14.8806 16.2494 14.8521 15.8501 14.4528C15.1942 13.7968 14.6808 13.7968 14.1104 14.4528Z" fill="black"/>
</svg>
