<svg width="46" height="25" viewBox="0 0 46 25" fill="none" xmlns="http://www.w3.org/2000/svg">
<g clip-path="url(#clip0_337_490)">
<path d="M45.0188 21.4319C45.0188 22.7508 44.218 23.3985 42.6165 23.3985H33.8744C34.2137 22.9014 34.3848 22.3087 34.4027 21.6556H42.9109C43.1582 21.6556 43.2642 21.5615 43.2642 21.3259C43.2642 18.4056 39.9317 15.6853 36.081 15.6853C34.7228 15.6853 33.4291 16.0237 32.3274 16.5949C31.9531 16.1431 31.5183 15.7128 31.0303 15.3132C32.4647 14.458 34.2041 13.9425 36.081 13.9425C41.0151 13.9425 45.0188 17.5224 45.0188 21.4319ZM40.4969 7.74845C40.4969 10.4216 38.5185 12.6 36.081 12.6C33.667 12.6 31.6651 10.4334 31.6651 7.77201C31.6651 5.16956 33.667 3.02637 36.081 3.02637C38.5303 3.02637 40.4969 5.13424 40.4969 7.74845ZM33.4196 7.77201C33.4196 9.46771 34.6443 10.8455 36.081 10.8455C37.5294 10.8455 38.7541 9.46771 38.7541 7.74845C38.7541 6.08807 37.5648 4.78096 36.081 4.78096C34.6325 4.78096 33.4196 6.11163 33.4196 7.77201Z" fill="#090909" fill-opacity="0.85"/>
<path d="M13.9853 15.3145C13.4984 15.7136 13.0646 16.1434 12.6909 16.5947C11.5893 16.0236 10.2957 15.6853 8.93777 15.6853C5.08713 15.6853 1.75459 18.4056 1.75459 21.3259C1.75459 21.5615 1.86057 21.6556 2.10786 21.6556H10.6161C10.634 22.3087 10.805 22.9014 11.1439 23.3985H2.39048C0.800752 23.3985 0 22.7508 0 21.4319C0 17.5224 4.00376 13.9425 8.93777 13.9425C10.811 13.9425 12.5502 14.4585 13.9853 15.3145ZM13.3655 7.74845C13.3655 10.4216 11.3754 12.6 8.94956 12.6C6.52378 12.6 4.53367 10.4334 4.53367 7.77201C4.53367 5.16956 6.52378 3.02637 8.94956 3.02637C11.3989 3.02637 13.3655 5.13424 13.3655 7.74845ZM6.28827 7.77201C6.28827 9.46771 7.50117 10.8455 8.94956 10.8455C10.398 10.8455 11.6227 9.46771 11.6227 7.74845C11.6227 6.08807 10.4334 4.78096 8.94956 4.78096C7.4894 4.78096 6.28827 6.11163 6.28827 7.77201Z" fill="#090909" fill-opacity="0.85"/>
<path d="M22.5151 12.4942C25.3178 12.4942 27.6022 10.0096 27.6022 6.97137C27.6022 3.95677 25.3295 1.58984 22.5151 1.58984C19.7125 1.58984 17.428 4.00387 17.428 6.99492C17.428 10.0213 19.7125 12.4942 22.5151 12.4942ZM22.5151 10.7161C20.7959 10.7161 19.3239 9.07928 19.3239 6.99492C19.3239 4.94594 20.7606 3.36798 22.5151 3.36798C24.2697 3.36798 25.7064 4.91061 25.7064 6.97137C25.7064 9.0557 24.2462 10.7161 22.5151 10.7161ZM15.1082 23.3986H29.8985C31.8651 23.3986 32.7954 22.8098 32.7954 21.5144C32.7954 18.4292 28.8976 13.9661 22.5033 13.9661C16.1209 13.9661 12.2231 18.4292 12.2231 21.5144C12.2231 22.8098 13.1534 23.3986 15.1082 23.3986ZM14.5429 21.6205C14.2368 21.6205 14.119 21.538 14.119 21.2907C14.119 19.3477 17.1101 15.7444 22.5033 15.7444C27.9084 15.7444 30.8995 19.3477 30.8995 21.2907C30.8995 21.538 30.7699 21.6205 30.4638 21.6205H14.5429Z" fill="#090909" fill-opacity="0.85"/>
</g>
<defs>
<clipPath id="clip0_337_490">
<rect width="45.3367" height="25" fill="white"/>
</clipPath>
</defs>
</svg>
