<svg width="32" height="30" viewBox="0 0 32 30" fill="none" xmlns="http://www.w3.org/2000/svg">
<path d="M3.88396 22.0658L3.44415 21.1592C3.28102 20.8256 3.13154 20.4891 2.99572 20.1501L5.08119 19.543C5.27334 20.0032 5.49431 20.4581 5.74469 20.9088C5.94768 21.2607 6.13037 21.6463 6.15067 21.7614C6.17773 21.917 6.02211 22.4786 5.5011 24.0416C5.12219 25.1851 4.83124 26.1391 4.84477 26.1594C4.86507 26.1797 5.81912 25.882 6.95585 25.5031C8.53917 24.9753 9.08047 24.8197 9.24286 24.8536C9.35789 24.8739 9.74356 25.0565 10.0954 25.2595C11.3742 25.97 12.6869 26.4436 14.0605 26.694C15.0077 26.8631 17.1053 26.8631 18.0526 26.694C18.9728 26.5248 19.9268 26.2339 20.8876 25.8279C21.5507 25.5505 21.7402 25.4964 21.9635 25.5234C22.8634 25.6452 23.2085 26.7549 22.5386 27.3774C22.3086 27.5939 21.4357 27.9796 20.4275 28.3111C16.9226 29.4682 13.2011 29.2043 9.84506 27.5601L8.93838 27.1203L6.06271 28.0811C3.66067 28.8795 3.13967 29.0284 2.90962 29.0013C2.44274 28.9404 2.06383 28.5615 2.00294 28.0946C1.97587 27.8646 2.12473 27.3435 2.92315 24.9415L3.88396 22.0658Z" fill="black"/>
<g filter="url(#filter0_d_335_484)">
<path d="M23.1046 14.9442C23.1046 18.8373 19.9486 21.9932 16.0555 21.9932C12.1625 21.9932 9.00654 18.8373 9.00654 14.9442C9.00654 11.0512 12.1625 7.89521 16.0555 7.89521C19.9486 7.89521 23.1046 11.0512 23.1046 14.9442Z" stroke="#020202" stroke-width="2.22304" shape-rendering="crispEdges"/>
</g>
<g filter="url(#filter1_d_335_484)">
<path d="M28.4144 8.21444C28.1167 7.66873 27.4329 7.46771 26.8872 7.76545C26.3415 8.06319 26.1405 8.74694 26.4382 9.29264L28.4144 8.21444ZM26.5743 20.3391C26.2901 20.892 26.5079 21.5705 27.0608 21.8547C27.6137 22.1389 28.2923 21.9211 28.5765 21.3682L26.5743 20.3391ZM5.89275 8.9073C6.21079 8.37317 6.03561 7.68235 5.50148 7.36431C4.96735 7.04628 4.27653 7.22146 3.95849 7.75559L5.89275 8.9073ZM7.49073 3.78084C6.99777 4.15957 6.90517 4.86621 7.28391 5.35917C7.66264 5.85213 8.36928 5.94473 8.86224 5.566L7.49073 3.78084ZM23.7631 5.98428C24.2342 6.38991 24.9449 6.33685 25.3505 5.86578C25.7561 5.3947 25.7031 4.684 25.232 4.27837L23.7631 5.98428ZM5.53695 20.3391C4.70627 18.723 4.23692 16.8901 4.23692 14.9443H1.98574C1.98574 17.2563 2.54428 19.4412 3.53478 21.3682L5.53695 20.3391ZM26.4382 9.29264C27.3536 10.9704 27.8743 12.8949 27.8743 14.9443H30.1255C30.1255 12.5088 29.5057 10.2147 28.4144 8.21444L26.4382 9.29264ZM27.8743 14.9443C27.8743 16.8901 27.405 18.723 26.5743 20.3391L28.5765 21.3682C29.5669 19.4412 30.1255 17.2563 30.1255 14.9443H27.8743ZM4.23692 14.9443C4.23692 12.7365 4.84121 10.6733 5.89275 8.9073L3.95849 7.75559C2.70527 9.86032 1.98574 12.32 1.98574 14.9443H4.23692ZM8.86224 5.566C10.8548 4.03512 13.3474 3.12559 16.0556 3.12559V0.87441C12.8342 0.87441 9.86286 1.95837 7.49073 3.78084L8.86224 5.566ZM16.0556 3.12559C19.0015 3.12559 21.6932 4.20194 23.7631 5.98428L25.232 4.27837C22.769 2.15759 19.5608 0.87441 16.0556 0.87441V3.12559Z" fill="black"/>
</g>
<defs>
<filter id="filter0_d_335_484" x="6.76943" y="6.78369" width="18.5725" height="18.5725" filterUnits="userSpaceOnUse" color-interpolation-filters="sRGB">
<feFlood flood-opacity="0" result="BackgroundImageFix"/>
<feColorMatrix in="SourceAlpha" type="matrix" values="0 0 0 0 0 0 0 0 0 0 0 0 0 0 0 0 0 0 127 0" result="hardAlpha"/>
<feOffset dy="1.12559"/>
<feGaussianBlur stdDeviation="0.562795"/>
<feComposite in2="hardAlpha" operator="out"/>
<feColorMatrix type="matrix" values="0 0 0 0 0 0 0 0 0 0 0 0 0 0 0 0 0 0 0.25 0"/>
<feBlend mode="normal" in2="BackgroundImageFix" result="effect1_dropShadow_335_484"/>
<feBlend mode="normal" in="SourceGraphic" in2="effect1_dropShadow_335_484" result="shape"/>
</filter>
<filter id="filter1_d_335_484" x="0.86025" y="0.874512" width="30.3908" height="23.3562" filterUnits="userSpaceOnUse" color-interpolation-filters="sRGB">
<feFlood flood-opacity="0" result="BackgroundImageFix"/>
<feColorMatrix in="SourceAlpha" type="matrix" values="0 0 0 0 0 0 0 0 0 0 0 0 0 0 0 0 0 0 127 0" result="hardAlpha"/>
<feOffset dy="1.12559"/>
<feGaussianBlur stdDeviation="0.562795"/>
<feComposite in2="hardAlpha" operator="out"/>
<feColorMatrix type="matrix" values="0 0 0 0 0 0 0 0 0 0 0 0 0 0 0 0 0 0 0.25 0"/>
<feBlend mode="normal" in2="BackgroundImageFix" result="effect1_dropShadow_335_484"/>
<feBlend mode="normal" in="SourceGraphic" in2="effect1_dropShadow_335_484" result="shape"/>
</filter>
</defs>
</svg>
