<?xml version="1.0" standalone="no"?>
<!DOCTYPE svg PUBLIC "-//W3C//DTD SVG 20010904//EN"
 "http://www.w3.org/TR/2001/REC-SVG-20010904/DTD/svg10.dtd">
<svg version="1.0" xmlns="http://www.w3.org/2000/svg"
 width="512.000000pt" height="512.000000pt" viewBox="0 0 512.000000 512.000000"
 preserveAspectRatio="xMidYMid meet">

<g transform="translate(0.000000,512.000000) scale(0.100000,-0.100000)"
fill="#000000" stroke="none">
<path d="M2315 5109 c-800 -83 -1501 -518 -1927 -1196 -604 -961 -490 -2237
274 -3068 425 -462 951 -737 1583 -827 119 -17 512 -16 635 1 622 86 1148 360
1572 820 349 378 572 861 650 1406 17 118 17 512 0 630 -59 416 -191 769 -410
1099 -92 140 -185 254 -315 385 -399 404 -893 653 -1462 737 -123 18 -478 26
-600 13z m555 -604 c889 -147 1559 -860 1650 -1754 84 -836 -385 -1643 -1157
-1989 -142 -64 -401 -142 -470 -142 l-23 0 0 685 0 685 230 0 c152 0 230 4
230 10 0 6 18 127 40 270 22 143 40 266 40 275 0 13 -34 15 -270 15 l-270 0 0
219 c0 261 8 300 80 372 69 69 112 81 318 87 l172 4 0 238 c0 196 -3 239 -14
243 -8 3 -88 13 -178 23 -188 19 -376 15 -478 -11 -237 -61 -410 -227 -479
-460 -31 -107 -41 -217 -41 -477 l0 -238 -250 0 -250 0 0 -285 0 -285 250 0
250 0 0 -685 0 -685 -22 0 c-13 0 -61 9 -108 20 -718 171 -1280 714 -1463
1415 -49 187 -61 284 -61 505 0 220 12 320 60 500 208 789 880 1367 1695 1459
114 13 403 5 519 -14z"/>
</g>
</svg>
