<svg width="32" height="30" viewBox="0 0 32 30" fill="none" xmlns="http://www.w3.org/2000/svg">
<path d="M3.83718 22.1032L3.39655 21.1948C3.23311 20.8606 3.08335 20.5235 2.94728 20.1839L5.03664 19.5756C5.22914 20.0367 5.45052 20.4925 5.70137 20.944C5.90474 21.2965 6.08777 21.6829 6.10811 21.7981C6.13522 21.9541 5.97931 22.5167 5.45733 24.0826C5.07772 25.2283 4.78622 26.1841 4.79978 26.2044C4.82012 26.2247 5.77594 25.9265 6.91479 25.5469C8.50105 25.0181 9.04336 24.8622 9.20606 24.8961C9.3213 24.9164 9.7077 25.0995 10.0602 25.3028C11.3414 26.0146 12.6565 26.4891 14.0326 26.7399C14.9817 26.9094 17.0831 26.9094 18.0322 26.7399C18.9541 26.5705 19.9099 26.279 20.8725 25.8722C21.5369 25.5943 21.7267 25.5401 21.9504 25.5672C22.852 25.6892 23.1977 26.801 22.5266 27.4246C22.2961 27.6415 21.4216 28.0279 20.4116 28.3601C16.9001 29.5193 13.1717 29.2549 9.80938 27.6076L8.90101 27.167L6.01998 28.1296C3.61348 28.9295 3.0915 29.0787 2.86102 29.0515C2.39328 28.9905 2.01366 28.6109 1.95265 28.1432C1.92553 27.9127 2.07467 27.3907 2.87458 24.9842L3.83718 22.1032Z" fill="black"/>
<g filter="url(#filter0_d_335_488)">
<path d="M24.2074 14.9682C24.2074 19.4835 20.547 23.1439 16.0317 23.1439C11.5164 23.1439 7.85596 19.4835 7.85596 14.9682C7.85596 10.4529 11.5164 6.79248 16.0317 6.79248C20.547 6.79248 24.2074 10.4529 24.2074 14.9682Z" fill="#030303"/>
</g>
<g filter="url(#filter1_d_335_488)">
<path d="M28.4132 8.22601C28.1149 7.67929 27.4299 7.4779 26.8832 7.77619C26.3364 8.07448 26.135 8.75951 26.4333 9.30623L28.4132 8.22601ZM26.5696 20.3732C26.2849 20.9271 26.5032 21.607 27.0571 21.8917C27.611 22.1764 28.2908 21.9582 28.5755 21.4043L26.5696 20.3732ZM5.84959 8.92017C6.16822 8.38504 5.99272 7.69293 5.45759 7.37431C4.92246 7.05568 4.23036 7.23118 3.91173 7.76631L5.84959 8.92017ZM7.45055 3.78416C6.95667 4.16359 6.8639 4.87155 7.24334 5.36543C7.62277 5.8593 8.33073 5.95207 8.82461 5.57264L7.45055 3.78416ZM23.7532 5.9917C24.2252 6.39808 24.9372 6.34493 25.3436 5.87298C25.75 5.40103 25.6968 4.689 25.2249 4.28261L23.7532 5.9917ZM5.49313 20.3732C4.6609 18.7541 4.19068 16.9178 4.19068 14.9684H1.9353C1.9353 17.2847 2.49488 19.4737 3.48722 21.4043L5.49313 20.3732ZM26.4333 9.30623C27.3504 10.9871 27.8721 12.9152 27.8721 14.9684H30.1275C30.1275 12.5283 29.5065 10.23 28.4132 8.22601L26.4333 9.30623ZM27.8721 14.9684C27.8721 16.9178 27.4019 18.7541 26.5696 20.3732L28.5755 21.4043C29.5679 19.4737 30.1275 17.2847 30.1275 14.9684H27.8721ZM4.19068 14.9684C4.19068 12.7565 4.79609 10.6895 5.84959 8.92017L3.91173 7.76631C2.65618 9.87497 1.9353 12.3392 1.9353 14.9684H4.19068ZM8.82461 5.57264C10.8209 4.03891 13.3181 3.12769 16.0314 3.12769V0.872313C12.804 0.872313 9.82709 1.9583 7.45055 3.78416L8.82461 5.57264ZM16.0314 3.12769C18.9828 3.12769 21.6794 4.20604 23.7532 5.9917L25.2249 4.28261C22.7573 2.15789 19.5431 0.872313 16.0314 0.872313V3.12769Z" fill="black"/>
</g>
<defs>
<filter id="filter0_d_335_488" x="6.72827" y="6.79248" width="18.6069" height="18.6069" filterUnits="userSpaceOnUse" color-interpolation-filters="sRGB">
<feFlood flood-opacity="0" result="BackgroundImageFix"/>
<feColorMatrix in="SourceAlpha" type="matrix" values="0 0 0 0 0 0 0 0 0 0 0 0 0 0 0 0 0 0 127 0" result="hardAlpha"/>
<feOffset dy="1.12769"/>
<feGaussianBlur stdDeviation="0.563843"/>
<feComposite in2="hardAlpha" operator="out"/>
<feColorMatrix type="matrix" values="0 0 0 0 0 0 0 0 0 0 0 0 0 0 0 0 0 0 0.25 0"/>
<feBlend mode="normal" in2="BackgroundImageFix" result="effect1_dropShadow_335_488"/>
<feBlend mode="normal" in="SourceGraphic" in2="effect1_dropShadow_335_488" result="shape"/>
</filter>
<filter id="filter1_d_335_488" x="0.807372" y="0.87207" width="30.4478" height="23.3999" filterUnits="userSpaceOnUse" color-interpolation-filters="sRGB">
<feFlood flood-opacity="0" result="BackgroundImageFix"/>
<feColorMatrix in="SourceAlpha" type="matrix" values="0 0 0 0 0 0 0 0 0 0 0 0 0 0 0 0 0 0 127 0" result="hardAlpha"/>
<feOffset dy="1.12769"/>
<feGaussianBlur stdDeviation="0.563843"/>
<feComposite in2="hardAlpha" operator="out"/>
<feColorMatrix type="matrix" values="0 0 0 0 0 0 0 0 0 0 0 0 0 0 0 0 0 0 0.25 0"/>
<feBlend mode="normal" in2="BackgroundImageFix" result="effect1_dropShadow_335_488"/>
<feBlend mode="normal" in="SourceGraphic" in2="effect1_dropShadow_335_488" result="shape"/>
</filter>
</defs>
</svg>
