<svg width="30" height="30" viewBox="0 0 30 30" fill="none" xmlns="http://www.w3.org/2000/svg">
<path d="M13.4499 0.0788197C7.66465 0.677547 2.62235 4.71716 0.797314 10.1995C-0.47949 14.0443 -0.219801 17.9974 1.55474 21.6258L2.02362 22.5924L0.999294 25.6582C0.148091 28.219 -0.0106075 28.7745 0.0182469 29.0197C0.0831691 29.5175 0.48713 29.9214 0.984867 29.9863C1.23013 30.0152 1.78558 29.8565 4.3464 29.0053L7.41217 27.981L8.37879 28.4499C11.9567 30.2028 15.9242 30.4841 19.6608 29.2506C20.7357 28.8971 21.6662 28.4859 21.9115 28.2551C22.6256 27.5914 22.2577 26.4084 21.2983 26.2786C21.0603 26.2497 20.8583 26.3074 20.1514 26.6032C19.127 27.036 18.1099 27.3462 17.1289 27.5265C16.119 27.7069 13.8828 27.7069 12.8729 27.5265C11.4085 27.2596 10.0091 26.7547 8.64569 25.9972C8.27059 25.7808 7.85941 25.5861 7.73678 25.5644C7.56366 25.5283 6.98657 25.6943 5.29859 26.2569C4.08671 26.6609 3.06959 26.9783 3.04795 26.9566C3.03353 26.935 3.34371 25.9179 3.74767 24.6988C4.30312 23.0324 4.46903 22.4337 4.44017 22.2678C4.41853 22.1452 4.22377 21.734 4.00736 21.3589C3.24993 19.9955 2.74498 18.5961 2.47808 17.1317C2.28331 16.0353 2.29774 13.8784 2.50693 12.7531C2.97582 10.25 4.10835 8.04983 5.8324 6.25365C11.5095 0.352938 21.0458 1.20414 25.5904 8.01377C27.0259 10.1634 27.7905 12.8974 27.6751 15.5087C27.603 17.175 27.2856 18.5312 26.6003 20.1542C26.3046 20.8612 26.2468 21.0631 26.2757 21.3012C26.4055 22.2606 27.5886 22.6285 28.2522 21.9143C28.4831 21.6691 28.8942 20.7385 29.2477 19.6637C31.0294 14.2463 29.5939 8.36002 25.4966 4.30598C22.3731 1.20414 17.8574 -0.38285 13.4499 0.0788197Z" fill="black"/>
<path d="M12.1445 6.63598C9.54037 7.53047 7.50614 9.58634 6.62608 12.1832C6.3159 13.0994 6.35918 13.4168 6.84249 13.8784C7.01562 14.0443 7.14546 14.0948 7.44843 14.1237C8.14815 14.1814 8.46555 13.9001 8.79737 12.9479C9.51873 10.892 11.0336 9.42043 13.14 8.73514C13.8902 8.48266 14.1931 8.07149 14.1138 7.3862C14.0561 6.85239 13.5295 6.41236 12.9668 6.42679C12.837 6.42679 12.4619 6.52057 12.1445 6.63598Z" fill="black"/>
<path d="M16.4437 6.57119C16.0758 6.7876 15.9171 7.04008 15.8811 7.46568C15.8234 8.15097 16.1119 8.46837 17.0569 8.80019C19.0695 9.50712 20.4978 10.9354 21.2047 12.948C21.5365 13.893 21.8539 14.1815 22.5392 14.1238C22.9864 14.0877 23.2461 13.9146 23.4409 13.5179C23.6357 13.1283 23.6212 12.9047 23.376 12.1834C22.4959 9.57204 20.4328 7.50896 17.8287 6.6289C17.1002 6.38364 16.79 6.36921 16.4437 6.57119Z" fill="black"/>
<path d="M7.13786 15.9272C6.74112 16.1075 6.4165 16.562 6.4165 16.9587C6.4165 17.3122 6.77718 18.3365 7.16672 19.094C8.20547 21.0993 10.0161 22.6502 12.1802 23.3788C12.9015 23.6241 13.1251 23.6385 13.5147 23.4437C13.8898 23.2562 14.0701 23.0037 14.1206 22.607C14.1927 21.9361 13.8898 21.5177 13.1396 21.2725C11.8555 20.8541 10.6942 20.075 9.92952 19.1228C9.40293 18.4592 9.08553 17.8749 8.79699 17.0597C8.56615 16.3889 8.40024 16.1436 8.0612 15.9705C7.85922 15.8695 7.33263 15.8406 7.13786 15.9272Z" fill="black"/>
<path d="M21.89 15.9993C21.5437 16.2229 21.4427 16.3744 21.2047 17.0597C20.4978 19.0723 19.0623 20.5006 17.0569 21.2075C16.1119 21.5394 15.8234 21.8568 15.8811 22.542C15.9171 22.9893 16.0903 23.249 16.487 23.4437C16.8765 23.6385 17.0929 23.6241 17.8287 23.3788C20.0072 22.643 21.8467 21.0488 22.8782 19.0074C23.2245 18.3221 23.5852 17.2978 23.5852 16.9948C23.5852 16.7063 23.3399 16.2229 23.1019 16.0498C22.8205 15.8478 22.1713 15.819 21.89 15.9993Z" fill="black"/>
</svg>
