<svg width="32" height="25" viewBox="0 0 32 25" fill="none" xmlns="http://www.w3.org/2000/svg">
<g clip-path="url(#clip0_337_509)">
<path d="M24.0506 5.03054V5.54341H22.2938V5.04145C22.2938 2.91355 21.2462 1.78959 19.0529 1.78959H4.99782C2.79354 1.78959 1.75688 2.91355 1.75688 5.04145V13.3894C1.75688 15.5172 2.79354 16.6303 4.99782 16.6303H6.34003C6.92929 16.6303 7.15845 16.8595 7.15845 17.4596V20.6132L10.6504 17.1541C10.9784 16.8174 11.2381 16.6856 11.6355 16.6456C11.6653 17.3218 11.7832 17.9212 11.9877 18.4402L8.28237 21.7481C7.61677 22.3265 7.24575 22.6102 6.71105 22.6102C5.94719 22.6102 5.52161 22.0755 5.52161 21.2353V18.3872H4.99782C1.74597 18.3872 0 16.5975 0 13.4003V5.03054C0 1.83324 1.74597 0.0327148 4.99782 0.0327148H19.0529C22.3047 0.0327148 24.0506 1.83324 24.0506 5.03054Z" fill="black" fill-opacity="0.85"/>
<path d="M16.4121 21.017H19.9477L23.5923 24.138C24.258 24.7054 24.6181 25 25.1419 25C25.8949 25 26.3204 24.4653 26.3204 23.636V21.017H26.5496C29.6924 21.017 31.3401 19.3256 31.3401 16.2375V10.334C31.3401 7.23485 29.6924 5.54346 26.5496 5.54346H16.4121C13.2693 5.54346 11.6216 7.23485 11.6216 10.334V16.2375C11.6216 19.3365 13.2693 21.017 16.4121 21.017ZM16.4448 19.2601C14.306 19.2601 13.3894 18.2563 13.3894 16.2156V10.3557C13.3894 8.31517 14.306 7.30033 16.4448 7.30033H26.5278C28.6556 7.30033 29.5832 8.31517 29.5832 10.3557V16.2047C29.5832 18.2563 28.6556 19.2601 26.5278 19.2601H25.5238C25.0546 19.2601 24.6836 19.5439 24.6836 20.155V23.014L20.9952 19.7185C20.6352 19.3802 20.3296 19.2601 19.8822 19.2601H16.4448Z" fill="black" fill-opacity="0.85"/>
</g>
<defs>
<clipPath id="clip0_337_509">
<rect width="31.6346" height="25" fill="white"/>
</clipPath>
</defs>
</svg>
