<svg width="26" height="25" viewBox="0 0 26 25" fill="none" xmlns="http://www.w3.org/2000/svg">
<path d="M18.5863 24.9996C20.8135 24.9996 22.2857 24.398 23.5785 22.9515C23.6808 22.8363 23.7705 22.7339 23.8729 22.6187C24.6409 21.7739 24.9993 20.9419 24.9993 20.1482C24.9993 19.2266 24.4745 18.3306 23.3352 17.5497L20.1224 15.348C19.1367 14.6824 18.3046 14.644 17.0758 15.2328L15.0918 16.2057C14.7077 16.3849 14.3749 16.3849 14.0037 16.1546C13.4405 15.7961 12.0196 14.6569 11.0596 13.6712C10.0868 12.6984 9.13953 11.5335 8.71711 10.8039C8.55071 10.5095 8.57631 10.2663 8.79391 9.92067L9.94596 8.11581C10.4452 7.32218 10.5988 6.23414 9.95876 5.31251L7.42426 1.67718C6.63063 0.537939 5.77301 0.0131204 4.85137 0.000319952C4.05774 -0.0124805 3.22572 0.358733 2.36808 1.12676C2.26569 1.21636 2.15047 1.31876 2.04807 1.42117C0.601621 2.70122 0 4.17327 0 6.38775C0 10.0487 2.26569 14.5288 6.37463 18.625C10.458 22.7084 14.9253 24.9996 18.5863 24.9996ZM18.5991 23.0539C15.3349 23.118 11.162 20.6091 7.84668 17.3066C4.50576 13.9784 1.88167 9.65187 1.94568 6.37496C1.97128 4.9669 2.45769 3.76366 3.46892 2.88042C3.54573 2.81642 3.62253 2.75241 3.69934 2.68842C4.08334 2.35561 4.50576 2.1764 4.86418 2.1764C5.24819 2.1764 5.5682 2.3172 5.82421 2.70122L8.12829 6.15734C8.3459 6.47735 8.3331 6.75896 8.07709 7.20698L6.79705 9.25505C6.23383 10.1639 6.33622 10.8551 6.89945 11.6231C7.64188 12.6088 8.75552 14.0297 9.74115 15.0025C10.714 15.9752 12.3396 17.3577 13.2229 17.9722C13.9909 18.5354 14.6822 18.6634 15.8726 18.0874L18.023 17.0633C18.5095 16.8457 18.8935 16.9097 19.3031 17.1657L22.2984 19.1755C22.6824 19.4186 22.8232 19.7514 22.8232 20.1355C22.8232 20.4938 22.644 20.9163 22.3112 21.3002C22.2473 21.377 22.1832 21.4539 22.1192 21.5307C21.236 22.5419 20.0199 23.0283 18.5991 23.0539Z" fill="black" fill-opacity="0.85"/>
</svg>
